<svg xmlns="http://www.w3.org/2000/svg" width="1280" height="500" viewBox="0 0 1280 500" fill="none" role="img" aria-labelledby="title desc"><title id="title">AppShare — Product landing page</title><desc id="desc">A floating sculptural mint-glass app monogram with flowing silk contours and gentle animation.</desc><defs><linearGradient id="bg" x2="1280" y2="500" gradientUnits="userSpaceOnUse"><stop stop-color="#fbfcf6"/><stop offset=".5" stop-color="#edf6ef"/><stop offset="1" stop-color="#dceee5"/></linearGradient><linearGradient id="rim" x1="650" y1="60" x2="1230" y2="450" gradientUnits="userSpaceOnUse"><stop stop-color="#95c6ae"/><stop offset=".48" stop-color="#c5e8ce"/><stop offset="1" stop-color="#b0b97e"/></linearGradient><linearGradient id="silk" x1="600" y1="400" x2="1250" y2="80" gradientUnits="userSpaceOnUse"><stop stop-color="#95c6ae" stop-opacity="0"/><stop offset=".3" stop-color="#95c6ae" stop-opacity=".45"/><stop offset=".58" stop-color="#c5e8ce" stop-opacity=".65"/><stop offset=".82" stop-color="#b0b97e" stop-opacity=".45"/><stop offset="1" stop-color="#b0b97e" stop-opacity="0"/></linearGradient><radialGradient id="halo"><stop stop-color="#c5e8ce" stop-opacity=".36"/><stop offset="1" stop-color="#95c6ae" stop-opacity="0"/></radialGradient><linearGradient id="glass" x1="820" y1="65" x2="1100" y2="400" gradientUnits="userSpaceOnUse"><stop stop-color="#ffffff"/><stop offset=".14" stop-color="#95c6ae"/><stop offset=".29" stop-color="#f0fff5"/><stop offset=".43" stop-color="#659e94"/><stop offset=".56" stop-color="#c5e8ce"/><stop offset=".7" stop-color="#fff7ff"/><stop offset=".87" stop-color="#b0b97e"/><stop offset="1" stop-color="#569581"/></linearGradient><radialGradient id="pearl" cx=".28" cy=".23"><stop stop-color="#ffffff"/><stop offset=".4" stop-color="#c5e8ce"/><stop offset=".83" stop-color="#95c6ae"/><stop offset="1" stop-color="#b0b97e"/></radialGradient><style>
.float{animation:float 10s ease-in-out infinite}.silk{animation:silk 18s ease-in-out infinite;transform-origin:960px 250px}.ray{stroke-dasharray:44 1156;animation:ray 16s linear infinite}.ray2{stroke-dasharray:12 1188;animation:ray 23s linear infinite reverse}.star{animation:star 7s ease-in-out infinite}.turn{animation:turn 42s linear infinite;transform-origin:0 0}.shimmer{animation:shimmer 12s ease-in-out infinite}.edge{stroke-dasharray:90 910;animation:edge 22s linear infinite}
@keyframes float{0%,100%{transform:translateY(3px)}50%{transform:translateY(-8px)}}@keyframes silk{0%,100%{transform:rotate(-1deg)}50%{transform:rotate(2deg)}}@keyframes ray{to{stroke-dashoffset:-1200}}@keyframes star{0%,100%{opacity:.25}50%{opacity:.85}}@keyframes turn{to{transform:rotate(360deg)}}@keyframes shimmer{0%,15%{opacity:.15}50%{opacity:.65}90%,100%{opacity:.15}}@keyframes edge{to{stroke-dashoffset:-1000}}
@media(prefers-reduced-motion:reduce){*{animation:none!important}.float,.silk{transform:none}.star{opacity:.6}}
</style><clipPath id="frame"><rect x="1" y="1" width="1278" height="498" rx="28"/></clipPath><filter id="mist" x="-50%" y="-100%" width="200%" height="300%"><feGaussianBlur stdDeviation="22"/></filter><filter id="glow" x="-70%" y="-70%" width="240%" height="240%"><feGaussianBlur stdDeviation="3" result="b"/><feMerge><feMergeNode in="b"/><feMergeNode in="SourceGraphic"/></feMerge></filter><filter id="soft" x="-50%" y="-100%" width="200%" height="300%"><feGaussianBlur stdDeviation="10"/></filter></defs><g clip-path="url(#frame)"><rect width="1280" height="500" fill="url(#bg)"/><ellipse cx="970" cy="215" rx="390" ry="305" fill="url(#halo)"/><g class="silk"><path d="M610 288.4C740 401.4 1035 283.4 1155 129.4S1055 -12.6 866 112.4 670 297.4 891 278.4" stroke="url(#silk)" stroke-width=".65" opacity="0.37"/><path d="M610 292.8C740 405.8 1035 287.8 1155 133.8S1055 -8.2 866 116.8 670 301.8 891 282.8" stroke="url(#silk)" stroke-width=".65" opacity="0.40"/><path d="M610 297.2C740 410.2 1035 292.2 1155 138.2S1055 -3.8 866 121.2 670 306.2 891 287.2" stroke="url(#silk)" stroke-width=".65" opacity="0.43"/><path d="M610 301.6C740 414.6 1035 296.6 1155 142.6S1055 0.6 866 125.6 670 310.6 891 291.6" stroke="url(#silk)" stroke-width=".65" opacity="0.45"/><path d="M610 306.0C740 419.0 1035 301.0 1155 147.0S1055 5.0 866 130.0 670 315.0 891 296.0" stroke="url(#silk)" stroke-width=".65" opacity="0.48"/><path d="M610 310.4C740 423.4 1035 305.4 1155 151.4S1055 9.4 866 134.4 670 319.4 891 300.4" stroke="url(#silk)" stroke-width=".65" opacity="0.51"/><path d="M610 314.8C740 427.8 1035 309.8 1155 155.8S1055 13.8 866 138.8 670 323.8 891 304.8" stroke="url(#silk)" stroke-width=".65" opacity="0.53"/><path d="M610 319.2C740 432.2 1035 314.2 1155 160.2S1055 18.2 866 143.2 670 328.2 891 309.2" stroke="url(#silk)" stroke-width=".65" opacity="0.56"/><path d="M610 323.6C740 436.6 1035 318.6 1155 164.6S1055 22.6 866 147.6 670 332.6 891 313.6" stroke="url(#silk)" stroke-width=".65" opacity="0.59"/><path d="M610 328.0C740 441.0 1035 323.0 1155 169.0S1055 27.0 866 152.0 670 337.0 891 318.0" stroke="url(#silk)" stroke-width=".65" opacity="0.61"/><path d="M610 332.4C740 445.4 1035 327.4 1155 173.4S1055 31.4 866 156.4 670 341.4 891 322.4" stroke="url(#silk)" stroke-width=".65" opacity="0.64"/><path d="M610 336.8C740 449.8 1035 331.8 1155 177.8S1055 35.8 866 160.8 670 345.8 891 326.8" stroke="url(#silk)" stroke-width=".65" opacity="0.67"/><path d="M610 341.2C740 454.2 1035 336.2 1155 182.2S1055 40.2 866 165.2 670 350.2 891 331.2" stroke="url(#silk)" stroke-width=".65" opacity="0.70"/><path d="M610 345.6C740 458.6 1035 340.6 1155 186.6S1055 44.6 866 169.6 670 354.6 891 335.6" stroke="url(#silk)" stroke-width=".65" opacity="0.72"/><path d="M610 350.0C740 463.0 1035 345.0 1155 191.0S1055 49.0 866 174.0 670 359.0 891 340.0" stroke="url(#silk)" stroke-width=".65" opacity="0.75"/><path d="M610 354.4C740 467.4 1035 349.4 1155 195.4S1055 53.4 866 178.4 670 363.4 891 344.4" stroke="url(#silk)" stroke-width=".65" opacity="0.72"/><path d="M610 358.8C740 471.8 1035 353.8 1155 199.8S1055 57.8 866 182.8 670 367.8 891 348.8" stroke="url(#silk)" stroke-width=".65" opacity="0.70"/><path d="M610 363.2C740 476.2 1035 358.2 1155 204.2S1055 62.2 866 187.2 670 372.2 891 353.2" stroke="url(#silk)" stroke-width=".65" opacity="0.67"/><path d="M610 367.6C740 480.6 1035 362.6 1155 208.6S1055 66.6 866 191.6 670 376.6 891 357.6" stroke="url(#silk)" stroke-width=".65" opacity="0.64"/><path d="M610 372.0C740 485.0 1035 367.0 1155 213.0S1055 71.0 866 196.0 670 381.0 891 362.0" stroke="url(#silk)" stroke-width=".65" opacity="0.61"/><path d="M610 376.4C740 489.4 1035 371.4 1155 217.4S1055 75.4 866 200.4 670 385.4 891 366.4" stroke="url(#silk)" stroke-width=".65" opacity="0.59"/><path d="M610 380.8C740 493.8 1035 375.8 1155 221.8S1055 79.8 866 204.8 670 389.8 891 370.8" stroke="url(#silk)" stroke-width=".65" opacity="0.56"/><path d="M610 385.2C740 498.2 1035 380.2 1155 226.2S1055 84.2 866 209.2 670 394.2 891 375.2" stroke="url(#silk)" stroke-width=".65" opacity="0.53"/><path d="M610 389.6C740 502.6 1035 384.6 1155 230.6S1055 88.6 866 213.6 670 398.6 891 379.6" stroke="url(#silk)" stroke-width=".65" opacity="0.51"/><path d="M610 394.0C740 507.0 1035 389.0 1155 235.0S1055 93.0 866 218.0 670 403.0 891 384.0" stroke="url(#silk)" stroke-width=".65" opacity="0.48"/><path d="M610 398.4C740 511.4 1035 393.4 1155 239.4S1055 97.4 866 222.4 670 407.4 891 388.4" stroke="url(#silk)" stroke-width=".65" opacity="0.45"/><path d="M610 402.8C740 515.8 1035 397.8 1155 243.8S1055 101.8 866 226.8 670 411.8 891 392.8" stroke="url(#silk)" stroke-width=".65" opacity="0.43"/><path d="M610 407.2C740 520.2 1035 402.2 1155 248.2S1055 106.2 866 231.2 670 416.2 891 397.2" stroke="url(#silk)" stroke-width=".65" opacity="0.40"/><path d="M610 411.6C740 524.6 1035 406.6 1155 252.6S1055 110.6 866 235.6 670 420.6 891 401.6" stroke="url(#silk)" stroke-width=".65" opacity="0.37"/></g><circle class="star" style="animation-delay:-0s" cx="626" cy="45" r="1.0" fill="url(#rim)"/><circle class="star" style="animation-delay:-1s" cx="723" cy="116" r="1.35" fill="url(#rim)"/><circle class="star" style="animation-delay:-2s" cx="820" cy="187" r="1.7" fill="url(#rim)"/><circle class="star" style="animation-delay:-3s" cx="917" cy="258" r="1.0" fill="url(#rim)"/><circle class="star" style="animation-delay:-4s" cx="1014" cy="329" r="1.35" fill="url(#rim)"/><circle class="star" style="animation-delay:-5s" cx="1111" cy="400" r="1.7" fill="url(#rim)"/><circle class="star" style="animation-delay:-6s" cx="1208" cy="78" r="1.0" fill="url(#rim)"/><circle class="star" style="animation-delay:-0s" cx="704" cy="149" r="1.35" fill="url(#rim)"/><circle class="star" style="animation-delay:-1s" cx="801" cy="220" r="1.7" fill="url(#rim)"/><circle class="star" style="animation-delay:-2s" cx="898" cy="291" r="1.0" fill="url(#rim)"/><circle class="star" style="animation-delay:-3s" cx="995" cy="362" r="1.35" fill="url(#rim)"/><circle class="star" style="animation-delay:-4s" cx="1092" cy="433" r="1.7" fill="url(#rim)"/><circle class="star" style="animation-delay:-5s" cx="1189" cy="111" r="1.0" fill="url(#rim)"/><circle class="star" style="animation-delay:-6s" cx="685" cy="182" r="1.35" fill="url(#rim)"/><circle class="star" style="animation-delay:-0s" cx="782" cy="253" r="1.7" fill="url(#rim)"/><circle class="star" style="animation-delay:-1s" cx="879" cy="324" r="1.0" fill="url(#rim)"/><circle class="star" style="animation-delay:-2s" cx="976" cy="395" r="1.35" fill="url(#rim)"/><path class="ray" pathLength="1200" d="M610 350C740 463 1035 345 1155 191S1055 49 866 174 670 359 891 340" stroke="url(#rim)" stroke-width="1.8" stroke-linecap="round"/><path class="ray2" pathLength="1200" d="M610 350C740 463 1035 345 1155 191S1055 49 866 174 670 359 891 340" stroke="url(#rim)" stroke-width="1"/> <g font-family="Segoe UI,Arial,sans-serif"><text x="68" y="65" fill="#55776a" font-size="13" letter-spacing="3">01 / SELECTED WORK</text><path d="M68 88H213" stroke="#55776a" stroke-opacity=".4"/><text x="63" y="218" fill="#163f37" font-size="88" font-weight="650" letter-spacing="-4">AppShare</text><text x="69" y="274" fill="#163f37" fill-opacity=".85" font-family="Georgia,Times New Roman,serif" font-size="30" font-style="italic">A clear first impression.</text><text x="69" y="334" fill="#55776a" font-size="15">A product landing page, thoughtfully presented.</text><path d="M69 393H506" stroke="#55776a" stroke-opacity=".3"/><text x="69" y="429" fill="#163f37" fill-opacity=".85" font-size="15">Web design · Web development</text><path d="M478 430 496 412m-15 0h15v15" stroke="#55776a" stroke-width="1.4" stroke-linecap="round"/><text x="69" y="469" fill="#55776a" fill-opacity=".65" font-size="10" letter-spacing="2.3">TRI / DESIGNED WITH INTENTION</text></g><ellipse cx="963" cy="417" rx="119" ry="13" fill="#397e69" opacity=".18" filter="url(#soft)"/><g class="float"><g transform="rotate(-12 950 224)"><path d="M841 108Q841 77 873 77H1034Q1066 77 1066 108V292Q1066 324 1034 324H873Q841 324 841 292Z" transform="translate(13 15)" fill="#508f82"/><path d="M841 108Q841 77 873 77H1034Q1066 77 1066 108V292Q1066 324 1034 324H873Q841 324 841 292Z" fill="url(#glass)" stroke="#e7fff2" stroke-width="2"/><path d="M850 169C913 115 1003 185 1060 139V210C1000 180 930 246 850 219Z" fill="#ffffff" opacity=".21"/><path d="M858 112Q858 94 878 94H1023" stroke="#ffffff" stroke-width="3" stroke-opacity=".8" stroke-linecap="round"/><path d="m890 236 63-84 64 84m-107-22h86" stroke="#4c8e7d" stroke-width="24" stroke-linecap="round" stroke-linejoin="round"/><path d="m885 231 63-84 64 84m-107-22h86" stroke="#effff0" stroke-width="18" stroke-linecap="round" stroke-linejoin="round"/><path class="shimmer" d="M880 94C875 173 900 273 987 312" stroke="#ffffff" stroke-width="3" stroke-linecap="round"/><circle cx="1061" cy="91" r="6" fill="#fff" filter="url(#glow)"/></g></g><circle cx="1132" cy="174" r="16" fill="url(#pearl)"/><circle cx="775" cy="316" r="7" fill="url(#pearl)"/></g><rect x="1" y="1" width="1278" height="498" rx="28" stroke="url(#rim)" stroke-opacity=".35"/><rect class="edge" x="1" y="1" width="1278" height="498" rx="28" pathLength="1000" stroke="url(#rim)" stroke-opacity=".65"/></svg>