<svg xmlns="http://www.w3.org/2000/svg" width="1200" height="420" viewBox="0 0 1200 420" role="img" aria-labelledby="title desc"><title id="title">MediMate AI Rulebook — Technical documentation</title><desc id="desc">Layered specification documents and a mint shield represent a proposed project rulebook.</desc><defs><linearGradient id="bg" x2="1" y2="1"><stop stop-color="#14312f"/><stop offset="1" stop-color="#192536"/></linearGradient><linearGradient id="paper" x2="1" y2="1"><stop stop-color="#fcfff9"/><stop offset="1" stop-color="#cde7dd"/></linearGradient><linearGradient id="shield" x2="1" y2="1"><stop stop-color="#b6f3d4"/><stop offset="1" stop-color="#61b7a0"/></linearGradient></defs><rect width="1200" height="420" rx="24" fill="url(#bg)"/><circle cx="956" cy="207" r="208" fill="#92f0c4" opacity=".04"/><circle cx="956" cy="207" r="165" fill="none" stroke="#8ae0bc" stroke-opacity=".1"/><circle cx="956" cy="207" r="126" fill="none" stroke="#8ae0bc" stroke-opacity=".1"/><g transform="translate(741 59) rotate(-8 116 147)"><rect x="22" y="18" width="228" height="285" rx="14" fill="#518377"/><rect x="10" y="9" width="228" height="285" rx="14" fill="#8fb7a7"/><rect width="228" height="285" rx="14" fill="url(#paper)"/><rect x="27" y="29" width="57" height="23" rx="11" fill="#d4e8dd"/><text x="55" y="44" text-anchor="middle" font-family="Segoe UI,Arial,sans-serif" font-size="10" fill="#447460">v2.0</text><text x="26" y="87" font-family="Segoe UI,Arial,sans-serif" font-size="21" font-weight="700" fill="#244d40">The rulebook.</text><path d="M29 111h163M29 136h130M29 161h149M29 186h99M29 211h153M29 236h131" stroke="#82aa98" stroke-width="5" stroke-linecap="round"/></g><path d="m1050 171 69 26v73q-1 46-69 77-68-31-69-77v-73Z" fill="url(#shield)" stroke="#d4ffe9" stroke-opacity=".6"/><path d="m1024 261 19 19 37-43" fill="none" stroke="#245e4d" stroke-width="8" stroke-linecap="round" stroke-linejoin="round"/><g font-family="Segoe UI,Arial,sans-serif"><text x="52" y="62" font-size="12" letter-spacing="3" fill="#a0d1bc">DOCUMENTATION / 04</text><text x="48" y="143" font-size="62" font-weight="750" letter-spacing="-2" fill="#effff7">MediMate AI</text><text x="52" y="196" font-size="37" font-weight="600" fill="#a3e6ca">The rules behind the product.</text><text x="53" y="241" font-size="16" fill="#a3bfba">Requirements. Business rules. Release gates.</text><rect x="53" y="272" width="196" height="30" rx="15" fill="#a0e2c5" fill-opacity=".09" stroke="#a0e2c5" stroke-opacity=".3"/><text x="151" y="292" text-anchor="middle" font-size="10" letter-spacing="1.5" fill="#c1efdc">PROPOSED RULEBOOK / V2.0</text><text x="53" y="366" font-size="11" letter-spacing="2" fill="#8ca8a3">TRI / TECHNICAL + PRODUCT DOCUMENTATION</text></g></svg>