<svg xmlns="http://www.w3.org/2000/svg" width="1200" height="420" viewBox="0 0 1200 420" role="img" aria-labelledby="title desc"><title id="title">ProZ0 — Development tooling contribution</title><desc id="desc">A pixel-art outpost and waveform illustrate work on audio review tools.</desc><defs><linearGradient id="sky" x2="0" y2="1"><stop stop-color="#211c36"/><stop offset="1" stop-color="#111b25"/></linearGradient></defs><rect width="1200" height="420" rx="24" fill="url(#sky)"/><circle cx="1050" cy="83" r="43" fill="#c6bbd7" opacity=".25"/><path d="M550 280 696 172 830 282 945 185 1200 287V420H550Z" fill="#2c3342"/><path d="M532 338 760 250 899 324 1120 239 1200 300V420H532Z" fill="#233a38"/><rect x="770" y="179" width="170" height="115" fill="#4c4660"/><rect x="786" y="165" width="138" height="20" fill="#777287"/><rect x="812" y="144" width="86" height="20" fill="#a6a099"/><rect x="806" y="206" width="101" height="84" fill="#242b38"/><rect x="930" y="248" width="135" height="49" fill="#4e6770"/><rect x="977" y="212" width="40" height="37" fill="#657e82"/><rect x="740" y="289" width="353" height="17" fill="#8a9579"/><rect x="714" y="306" width="410" height="17" fill="#475a51"/><rect x="694" y="323" width="452" height="17" fill="#334840"/><rect x="740" y="270" width="22" height="19" fill="#c9c886"/><rect x="1064" y="268" width="19" height="19" fill="#c9c886"/><rect x="729" y="96.0" width="7" height="12" rx="3" fill="#b5acd9" opacity=".8"/><rect x="746" y="89.5" width="7" height="25" rx="3" fill="#b5acd9" opacity=".8"/><rect x="763" y="93.0" width="7" height="18" rx="3" fill="#b5acd9" opacity=".8"/><rect x="780" y="84.0" width="7" height="36" rx="3" fill="#b5acd9" opacity=".8"/><rect x="797" y="76.0" width="7" height="52" rx="3" fill="#b5acd9" opacity=".8"/><rect x="814" y="88.5" width="7" height="27" rx="3" fill="#b5acd9" opacity=".8"/><rect x="831" y="68.5" width="7" height="67" rx="3" fill="#b5acd9" opacity=".8"/><rect x="848" y="60.0" width="7" height="84" rx="3" fill="#b5acd9" opacity=".8"/><rect x="865" y="73.0" width="7" height="58" rx="3" fill="#b5acd9" opacity=".8"/><rect x="882" y="81.0" width="7" height="42" rx="3" fill="#b5acd9" opacity=".8"/><rect x="899" y="64.0" width="7" height="76" rx="3" fill="#b5acd9" opacity=".8"/><rect x="916" y="52.0" width="7" height="100" rx="3" fill="#b5acd9" opacity=".8"/><rect x="933" y="66.0" width="7" height="72" rx="3" fill="#b5acd9" opacity=".8"/><rect x="950" y="80.0" width="7" height="44" rx="3" fill="#b5acd9" opacity=".8"/><rect x="967" y="86.5" width="7" height="31" rx="3" fill="#b5acd9" opacity=".8"/><rect x="984" y="70.0" width="7" height="64" rx="3" fill="#b5acd9" opacity=".8"/><rect x="1001" y="79.0" width="7" height="46" rx="3" fill="#b5acd9" opacity=".8"/><rect x="1018" y="89.0" width="7" height="26" rx="3" fill="#b5acd9" opacity=".8"/><rect x="1035" y="84.5" width="7" height="35" rx="3" fill="#b5acd9" opacity=".8"/><rect x="1052" y="94.5" width="7" height="15" rx="3" fill="#b5acd9" opacity=".8"/><g font-family="Segoe UI,Arial,sans-serif"><text x="52" y="62" font-size="12" letter-spacing="3" fill="#b6a4dd">SELECTED CONTRIBUTION / 03</text><text x="48" y="153" font-size="76" font-weight="750" letter-spacing="-3" fill="#ede5ff">ProZ0<tspan fill="#b3d39a">.</tspan></text><text x="53" y="203" font-size="23" fill="#beb7cf">Listen. Compare. Verify.</text><text x="53" y="237" font-size="16" fill="#9a95ae">Audio audition tools for a pixel-art world.</text><rect x="53" y="268" width="212" height="30" rx="15" fill="#c1abe4" fill-opacity=".1" stroke="#c1abe4" stroke-opacity=".3"/><text x="159" y="288" text-anchor="middle" font-size="10" letter-spacing="1.5" fill="#d4c5ea">DEVELOPMENT / AUDIO TOOLING</text><text x="53" y="366" font-size="11" letter-spacing="2" fill="#8c8fa4">PROJECT: 5ERAX/PROZ0 · CONTRIBUTION BY TRI</text></g></svg>