<svg xmlns="http://www.w3.org/2000/svg" width="1200" height="560" viewBox="0 0 1200 560" role="img" aria-labelledby="title desc"><title id="title">Streetwear — Shopify Ecommerce Concept</title><desc id="desc">Original editorial cover in cream, black and acid green with an illustrated storefront and oversized hoodie.</desc>
<defs><linearGradient id="fabric" x2="1" y2="1"><stop stop-color="#676570"/><stop offset=".4" stop-color="#292930"/><stop offset="1" stop-color="#111119"/></linearGradient><filter id="shadow" x="-40%" y="-40%" width="190%" height="190%"><feDropShadow dx="0" dy="15" stdDeviation="18" flood-color="#13131a" flood-opacity=".25"/></filter><pattern id="lines" width="7" height="7" patternUnits="userSpaceOnUse"><path d="M0 0V7" stroke="#fff" stroke-opacity=".025"/></pattern></defs>
<rect width="1200" height="560" rx="24" fill="#eeede4"/><path d="M475 0H1200V560H575Z" fill="#191a21"/><path d="M475 0H1200V560H575Z" fill="url(#lines)"/>
<g font-family="Segoe UI,Arial,sans-serif"><text x="50" y="59" font-size="12" letter-spacing="3" fill="#606157">SELECTED WORK / 02</text><text x="45" y="151" font-size="70" font-weight="850" letter-spacing="-4" fill="#17191b">STREET</text><text x="45" y="214" font-size="70" font-weight="850" letter-spacing="-4" fill="#17191b">WEAR<tspan fill="#778947">.</tspan></text><text x="50" y="263" font-size="20" fill="#63655e">Style beyond the storefront.</text>
<rect x="50" y="289" width="173" height="29" rx="14" fill="#191a21"/><text x="137" y="308" text-anchor="middle" font-size="10" letter-spacing="1.5" fill="#d7fb67">SHOPIFY / STORE CONCEPT</text>
<path d="M50 358H402" stroke="#c5c6b9"/><text x="50" y="389" font-size="14" font-weight="600" fill="#34382f">Fashion. Commerce. Identity.</text><text x="50" y="414" font-size="12" fill="#797d70">Original portfolio cover illustration</text><text x="50" y="511" font-size="11" letter-spacing="2" fill="#717666">TRI / WEB DESIGN + DEVELOPMENT</text>
<g transform="translate(499 72) rotate(3 310 190)" filter="url(#shadow)"><rect width="641" height="387" rx="12" fill="#f6f5ed"/><path d="M0 29H641" stroke="#ddded1"/><circle cx="17" cy="15" r="3" fill="#c6c7b8"/><circle cx="29" cy="15" r="3" fill="#c6c7b8"/><circle cx="41" cy="15" r="3" fill="#c6c7b8"/><text x="24" y="62" font-size="16" font-weight="850" letter-spacing="-1" fill="#1c1e1b">STREET/STUDIO</text><text x="398" y="59" font-size="9" fill="#51564a">SHOP</text><text x="455" y="59" font-size="9" fill="#51564a">COLLECTIONS</text><text x="566" y="59" font-size="9" fill="#51564a">BAG (0)</text>
<rect x="13" y="79" width="615" height="211" fill="#d0e776"/><text x="32" y="111" font-size="10" letter-spacing="2" fill="#414c1d">THE EVERYDAY EDIT</text><text x="29" y="165" font-size="44" font-weight="850" letter-spacing="-2" fill="#1b2214">WEAR YOUR</text><text x="29" y="211" font-size="44" font-weight="850" letter-spacing="-2" fill="#1b2214">OWN RULES.</text><rect x="33" y="240" width="122" height="28" fill="#20271a"/><text x="94" y="258" text-anchor="middle" font-size="9" letter-spacing="1" fill="#f3f7e9">EXPLORE THE EDIT ↗</text>
<g transform="translate(365 97)"><ellipse cx="118" cy="164" rx="98" ry="11" fill="#45591b" opacity=".18"/><path d="m92 5-18 22-42 18-26 83 34 13 22-53v83h119V88l22 53 34-13-26-83-42-18-18-22Z" fill="url(#fabric)"/><path d="M92 5q30-19 60 0l17 22-28 22h-37L75 27Z" fill="#48464f"/><path d="M96 14q25-13 51 0l-9 23h-33Z" fill="#20202a"/><path d="M104 49v29m35-29v29" stroke="#bbb9ae" stroke-width="2"/><path d="M81 135h80l-12 23H92Z" fill="#191920"/><text x="121" y="110" text-anchor="middle" font-size="9" letter-spacing="2" fill="#d1e779">STUDIO</text></g>
<text x="22" y="314" font-size="9" letter-spacing="2" fill="#555b4f">NEW IN / THE COLLECTION</text><rect x="19" y="329" width="190" height="42" fill="#e1e2d8"/><rect x="224" y="329" width="190" height="42" fill="#e1e2d8"/><rect x="429" y="329" width="190" height="42" fill="#e1e2d8"/><path d="M37 343h65m140 0h65m141 0h65" stroke="#979b8b" stroke-width="4"/><path d="M37 357h41m164 0h41m165 0h41" stroke="#b8baad" stroke-width="3"/></g>
<g transform="translate(976 378) rotate(-10)"><rect width="167" height="80" fill="#d5f465"/><text x="83" y="34" text-anchor="middle" font-size="13" font-weight="800" letter-spacing="1" fill="#252a19">BUILT FOR</text><text x="83" y="60" text-anchor="middle" font-size="21" font-weight="850" fill="#252a19">EXPRESSION ↗</text></g>
<text x="692" y="514" font-size="11" letter-spacing="3" fill="#a7a9a3">ECOMMERCE / EDITORIAL DESIGN</text></g></svg>